<svg xmlns="http://www.w3.org/2000/svg" width="1000" height="550"><path fill="#0038a8" d="M0 0h1000v550H0z"/><path fill="#fff" d="M0 0h1000v366.667H0z"/><path fill="#d52b1e" d="M0 0h1000v183.333H0z"/><path d="M569.694 274.982c0 38.504-31.193 69.712-69.696 69.712-38.483 0-69.692-31.208-69.692-69.712 0-38.488 31.21-69.676 69.692-69.676 38.503 0 69.696 31.188 69.696 69.676z" fill="#fff" stroke="#000" stroke-width="3.072" stroke-miterlimit="10"/><path d="M533.727 264.164c-1.693-.068-1.703 1.798-1.703 1.798s.058-.552.01.074c-.032.62.278 2.13 1.528 2.253 1.319.116 1.757-1.426 1.768-2.174 0-.297-.097-1.913-1.603-1.95" fill="#009b3a" stroke="#000" stroke-width=".821"/><path d="M456.283 302.87l-.597-.989c-.06-.11-.216-.292-.465-.563a.681.681 0 0 0-.462-.227.823.823 0 0 0-.543.11c-.232.141-.384.331-.408.562-.045.236.065.56.327.998l.604 1.029zm5.9-.34l-7.583 4.51-2.315-3.89c-.429-.73-.69-1.31-.792-1.768-.119-.466-.062-.903.13-1.337.192-.438.54-.803 1.025-1.094a2.63 2.63 0 0 1 1.233-.381c.425 0 .813.105 1.189.304.232.133.502.34.796.64-.07-.324-.11-.58-.094-.778.025-.118.078-.312.184-.608.102-.284.2-.482.261-.608l1.532-2.44 1.563 2.65-1.563 2.631c-.196.332-.315.588-.331.766-.009.247.045.462.163.673l.13.215 3.072-1.828zM448.833 296.355l-2.315-6.918 1.785-.6 1.45 4.336 1.339-.45-1.364-4.024 1.715-.56 1.347 4.005 1.642-.531-1.482-4.462 1.894-.645 2.352 7.048zM449.08 282.272l-.093-.648c-.061-.54-.192-.888-.392-1.07a.944.944 0 0 0-.747-.235c-.27.044-.49.158-.658.348-.175.211-.233.56-.16 1.066l.074.779zm-3.43 3.158l-.526-4.495c-.106-.965.033-1.735.437-2.278.417-.539 1.054-.863 1.911-.96.882-.11 1.613.08 2.168.547.548.474.899 1.264 1.03 2.35l.167 1.48 3.246-.377.319 2.72zM445.344 268.23l.282-2.708 5.235.563c.514.061.996.199 1.425.402.461.206.829.506 1.135.895.302.39.515.762.613 1.164.134.53.171 1.179.085 1.925a9.93 9.93 0 0 1-.245 1.378c-.11.498-.281.908-.494 1.224a3.21 3.21 0 0 1-.849.859 2.77 2.77 0 0 1-1.074.458c-.58.118-1.078.142-1.51.093l-5.211-.55.281-2.712 5.346.58c.482.048.865-.041 1.163-.285.299-.239.466-.587.523-1.045.05-.483-.049-.855-.282-1.143-.232-.296-.592-.462-1.078-.519zM454.113 260.82l.47-1.305c.143-.442.184-.783.086-1.03a.817.817 0 0 0-.535-.482c-.262-.09-.478-.073-.69.057-.22.133-.409.417-.56.859l-.465 1.313zm-3.27-1.147l.396-1.107c.134-.405.171-.713.073-.92-.073-.199-.245-.357-.51-.434a.758.758 0 0 0-.645.029c-.192.113-.352.356-.482.746l-.413 1.138zm-4.162 1.463l1.675-4.827c.29-.803.702-1.338 1.257-1.642a2.098 2.098 0 0 1 1.7-.126c.481.19.848.483 1.102.912.15.284.245.657.245 1.09.347-.55.747-.9 1.192-1.05.453-.161.947-.153 1.482.033.42.146.772.385 1.05.701.265.333.44.698.527 1.111.04.267.02.624-.074 1.066-.139.62-.22 1.013-.29 1.196l-1.552 4.442zM451.174 249.84l1.425-2.326 5.676 3.44 2.21-3.63 1.85 1.13-3.602 5.954zM456.996 241.168l1.752-2.087 6.726 5.686-1.756 2.087zM469.21 236.43l2.292-.98c.294.616.461 1.203.485 1.779.02.567-.09 1.102-.326 1.6-.262.507-.69.998-1.278 1.513-.748.608-1.434 1.005-2.083 1.179-.641.166-1.36.126-2.16-.126-.772-.255-1.507-.81-2.217-1.641-.923-1.13-1.348-2.237-1.254-3.324.09-1.106.686-2.099 1.772-3.015.862-.713 1.662-1.086 2.45-1.147.768-.073 1.585.158 2.405.673l-1.506 1.953c-.229-.15-.42-.25-.584-.283a1.322 1.322 0 0 0-.731-.009c-.241.053-.474.166-.67.333-.478.4-.686.895-.616 1.487.04.442.322.957.812 1.569.633.75 1.18 1.17 1.63 1.256.473.097.91-.036 1.318-.377.397-.34.613-.697.621-1.086.012-.414-.098-.863-.36-1.354M478.127 231.134l-2.303-2.383.58 3.27zm1.372 1.447l-2.76 1.403.282 1.495-2.479 1.26-1.05-9.358 2.65-1.354 6.955 6.352-2.536 1.297zM490.218 223.393l.678 4.758.662-.097c.567-.07.964-.195 1.188-.353.217-.174.364-.397.453-.746.098-.324.098-.83-.003-1.536-.13-.92-.376-1.536-.719-1.828-.35-.292-.878-.397-1.58-.292zm-2.964-1.593l4.002-.576c.788-.105 1.429-.097 1.943.049.531.15.968.393 1.352.75.372.356.67.79.882 1.297a6.19 6.19 0 0 1 .457 1.665c.143.924.143 1.67-.008 2.201a3.72 3.72 0 0 1-.694 1.43c-.335.394-.707.69-1.119.856a6.112 6.112 0 0 1-1.58.482l-4.01.564zM499.247 220.091l7.272.54-.135 1.876-4.553-.34-.106 1.398 4.223.312-.152 1.787-4.201-.3-.123 1.719 4.684.348-.147 1.986-7.412-.547zM510.452 221.12l2.618.73-1.81 6.404 4.088 1.155-.596 2.075-6.71-1.9zM525.319 230.897l.563.365c.433.287.8.409 1.066.38a.818.818 0 0 0 .65-.405c.146-.223.2-.474.167-.746-.053-.259-.294-.522-.719-.802l-.65-.438zm-.217-4.641l3.786 2.497c.82.539 1.302 1.147 1.45 1.803.158.665 0 1.362-.487 2.084-.473.733-1.086 1.163-1.813 1.288-.735.118-1.54-.109-2.458-.713l-1.245-.827-1.789 2.728-2.283-1.512zM534.662 239.691l1.535-2.938-2.915 1.577zm-.931 1.751l-2.21-2.172-1.33.73-1.98-1.946 4.07-1.88 4.484-2.072 2.107 2.084-3.83 8.612-2.026-2.01zM541.915 245.264l.621.981c.074.098.208.288.486.547a.725.725 0 0 0 .474.207.758.758 0 0 0 .522-.13c.233-.15.364-.336.405-.575.032-.227-.09-.568-.364-.981l-.629-1.005zm-5.892.523l7.428-4.742 2.438 3.822c.453.705.739 1.285.878 1.735.102.45.069.904-.115 1.337-.18.446-.51.815-.976 1.12-.42.267-.825.417-1.241.417-.396.024-.8-.077-1.197-.244a4.563 4.563 0 0 1-.804-.628c.078.324.127.588.118.77a4.817 4.817 0 0 1-.155.608 3.219 3.219 0 0 1-.265.624l-1.438 2.489-1.666-2.598 1.495-2.667c.2-.357.298-.612.298-.79.008-.24-.029-.466-.188-.67l-.118-.202-3.022 1.925zM546.437 257.653l2.642-1.994-3.303.183zm-1.604 1.18l-1.058-2.914-1.503.105-.96-2.614 9.417.11 1.017 2.78-7.15 6.128-.98-2.691zM549.05 268.205l1.813-.239.526 4.2-3.728.45c-.629-.73-1.11-1.383-1.368-1.979-.286-.591-.47-1.309-.575-2.148-.135-1.037-.066-1.905.224-2.602.261-.697.727-1.277 1.38-1.735.658-.433 1.434-.721 2.336-.83.952-.126 1.813-.029 2.564.283.752.3 1.356.807 1.826 1.52.363.564.604 1.338.718 2.343.135.96.135 1.694.008 2.193a2.636 2.636 0 0 1-.665 1.3 3.41 3.41 0 0 1-1.295.884l-.792-2.541c.315-.158.547-.36.686-.649.143-.275.18-.624.143-1.005-.098-.6-.343-1.045-.792-1.345-.461-.3-1.14-.394-2.03-.284-.947.117-1.588.389-1.96.782-.35.414-.481.944-.416 1.577.033.3.122.58.237.839.126.275.31.555.563.904l.83-.114zM554.628 281.418l-.31 2.699-5.21-.588a4.426 4.426 0 0 1-1.438-.41 3.178 3.178 0 0 1-1.127-.895c-.298-.38-.502-.766-.6-1.155-.127-.563-.16-1.196-.074-1.937.058-.422.14-.888.241-1.386.119-.499.294-.904.515-1.22.212-.317.498-.596.841-.848.384-.239.735-.389 1.086-.45.572-.109 1.082-.145 1.511-.08l5.219.595-.31 2.692-5.338-.613c-.486-.052-.87.033-1.172.272-.294.243-.47.584-.518 1.05-.053.478.037.855.273 1.143.23.292.588.466 1.066.539zM546.518 291.447l3.32.118-2.68-1.954zm-1.969-.101l1.005-2.922-1.23-.88.915-2.63 7.244 6.019-.996 2.816-9.388.231.923-2.699zM549.413 299.458l-1.532 2.606-3.47.012 1.661 3.048-1.523 2.574-2.678-5.549-3.177-1.872 1.396-2.355 3.173 1.885z"/><path d="M558.361 274.982c0 32.242-26.126 58.372-58.352 58.372-32.235 0-58.361-26.13-58.361-58.372 0-32.218 26.126-58.344 58.36-58.344 32.227 0 58.353 26.126 58.353 58.344z" fill="none" stroke="#000" stroke-width="1.229" stroke-miterlimit="10"/><path d="M543.43 274.784c0 23.994-19.436 43.428-43.423 43.428-23.986 0-43.431-19.434-43.431-43.428 0-23.97 19.445-43.409 43.431-43.409 23.987 0 43.424 19.439 43.424 43.409z" fill="none" stroke="#000" stroke-width="1.229" stroke-miterlimit="10"/><path d="M500.012 259.157l3.647 10.441 11.037.247-8.795 6.688 3.197 10.582-9.086-6.29-9.09 6.29 3.181-10.582-8.808-6.688 11.058-.247z" fill="#fedf00" stroke="#000" stroke-width=".502"/><path d="M520.063 304.754c-.368.308-1.85.474-2.242.54-.396.052-1.952.068-2.61.092-.363.025-1.061.126-1.424.126-3.19-.364 5.182-.313 6.276-.758m-8.359-2.468c.208-.373 1.254-2.7 1.63-3.36.383-.649 1.249-2.38 1.767-3.1.266-.39 1.307-1.52 1.556-1.014-1.813 1.567-3.242 4.302-4.004 6.142-.098.198-.694 1.222-.914 1.49-.213.263-.126.76-.46.8-.352.044-.106.108-.106.108s.302-.673.531-1.066zm12.026 1.78s-1.442-.216-2.336-.532c-.89-.3-2.385-.53-3.659-.498-1.262.016-2.417.397-3.446.79-1.025.381-2.352.413-2.352.413s-.752.118-.4-.056c.334-.166 1.498-1.074 1.498-1.074l.752-1.03c.216-.06 4.03-5.064 3.615-6.407.584-.989 1.268-2.753 1.011-3.06-.122-.126-2.969.903-3.593 1.47-.723.625-1.234 1.926-1.45 2.676-.212.745-1.307 1.361-1.307 1.361-.89.64-1.535 2.667-1.837 4.325-.306 1.637-4.34 2.544-4.34 2.544s-1.119.418-.126.734c.171.048.614.797.97.809.493.057 2.998-1.015 3.386-.93a29.72 29.72 0 0 1 2.523.69c.956.324 1.744.49 2.413.243.678-.244 1.646-.15 2.373-.008.715.154 1.515.089 1.976-.053.494-.15 1.793-.872 1.793-.872s1.405-.608 2.217-.989c.813-.38.319-.547.319-.547" fill="#009b3a" stroke="#000" stroke-width=".628"/><path d="M512.769 308.934s-5.554-2.906-5.852-2.975c-.175-.024-2.52-1.317-3.593-1.65-.776-.251-1.846-.316-2.23-.292-.914.065-2.407.468-2.407.468l1.38.564s1.295.636 1.928.977c.906.478.947 1.061.947 1.061l5.029 2.212 1.02.733s.928-1.28 3.778-1.098" fill="#009b3a" stroke="#000" stroke-width=".502"/><path d="M518.355 297.399c1.747-1.558 2.601-3.773 4.038-5 .233.167.233.445-.051.936-.272.483-.633.65-.792.902-.293.393-1.168 1.12-1.405 1.556-.21.414-.482.992-1.244 1.432-.758.453-.52 1.174-.584 1.477-.06.333-1.229 1.17-1.793 2.204-.107 1.078-.156.626-.81 1.009 1.19-1.794 1.816-2.95 2.641-4.516m-3.926 4.93c-.112.236-3.557 2.192-2.48 1.902 1.071-.282 4.254-1.431 5.158-1.833 1.106-.483 1.77-1.496 2.6-2.32.848-.842 3.47-3.347 3.923-4.313.443-.995.847-2.378-.931-5.485 0 0-.276.594-.938 1.175-.655.594-1.632 1.252-1.632 1.252l-1.14 1.077s-4.026 7.396-4.56 8.546" fill="#009b3a" stroke="#000" stroke-width=".662"/><path d="M528.425 299.727s-2.205-.198-2.397-.198c-.208 0-1.417-.167-3.173-.167-1.74 0-2.393.604-2.85 1.09-.494.544-1.866 1.8-1.866 1.8l.739-.065c1.764-1.374 3.136-.87 3.683-.91.572-.02 1.26.036 3.025-.589 1.792-.628 1.687-.04 1.491.02a9.298 9.298 0 0 1-2.66.537c-1.33.073-2.498.331-3.02.331-.527 0-4.409 1.062-4.409 1.062s4.201.246 4.654.396c.45.183 1.156.098 1.74-.182 1.609-.742 2.336-.884 2.997-1.033.666-.13 1.458-.58 1.458-.58s.425-.268.817-.98c.404-.73-.23-.532-.23-.532M530.486 288.218c.265-.657.927-2.201 1.63-2.809.428-.373 1.167-.547 1.559-.713.167-.057 1.373-.115-.134.299-.625.166-1.469.536-1.844 1.165-.527 1.462-.987 2.736-1.965 3.67-.719.754-1.174 1.736-1.174 1.736l-.77.267c1.412-.865 2.025-2.468 2.698-3.615zm6.827-.823c-.804.268-1.086.49-1.086.49-1.8.54-2.537 1.67-3.325 2.59-.4.482-.964.842-2.863 1.656-1.735.746-3.077 1.898-3.11 1.898 0 0-.55.113-.445.38.041.127.51.025.51.025s3.575-.51 5.065-1.417c.952-.596 1.49-1.03 2.392-2.424.404-.616.857-1.775.878-1.03.07 1.978-3.002 3.895-4.34 4.487-.716.304-1.671.43-2.92.636-1.234.227-1.985.159-1.895-.113.126-.393.27-.474.596-.863.588-.701 2.009-.949 3.054-1.44 1.238-.554 2.41-1.37 2.998-2.066.6-.705.808-.965.971-1.56.458-1.557.482-2.42.911-2.976 1.51-1.86 1.731-2.46 1.805-3.29.016-.191-.784.441-1.2.672-.813.482-1.115.482-2.781.916-1.691.422-1.654 1.512-1.916 2.027-.077.206-.763 1.062-1.09 1.22-.327.166-1.131 1.329-1.429 2.01-.22.498-.613.855-.927.815-.33-.061.633-3.664.845-4.26.229-.592.274-1.747.274-2.136 0-.373.013-1.354-.64-1.464-.65-.11-.68-1.007-.68-1.007-1.563 1.354-.69 3.74-.522 5.154.168 1.402-.322 3.996-.322 3.996 1.51.645.322 2.48-.147 3.073-.494.603-1.43.713-1.85 1.244-.445.547-3.609 4.953-3.609 4.953l3.936-1.115s.367.065-.221-.38c-.596-.427.192-2.08.698-2.485.968-.758 2.275-.207 2.275-.207s1.825.28 4.063-.608c1.87-.738 2.674-1.933 3.56-2.833.482-.49 1.364-2.116 1.92-3.08.335-.556.935-1.614.567-1.488" fill="#009b3a" stroke="#000" stroke-width=".628"/><path d="M526.153 297.976c.3-.122.345-.176.896-.777.542-.6.064-1.613-.774-1.572-.41.027-.846-.068-1.652 1.016-.778 1.085.373 1.482.81 1.527.187.01.433-.072.72-.194" fill="#009b3a" stroke="#000" stroke-width=".7"/><path d="M524.118 291.116c-.521.872-.8 1.874-.39 2.183.092.051.455.37.762.37.302 0 1.158-.411 1.646-1.164.489-.73.889-1.532-.111-2.03-.907-.449-1.53-.029-1.907.64" fill="#009b3a" stroke="#000" stroke-width=".715"/><path d="M527.096 280.463s.082-.134-.261-.49c-.543-.556-1.223-1.547-1.223-1.547-1.082.592-1.442 1.787-1.442 2.262 0 .494.184 1.568.017 2.663-.058.372-.119.798-.654 2.152-.547 1.337.078 2.565.2 2.999.094.43.54 1.767.54 1.767s.424-.272.567-.304c.167-.045.743-.02.743-.02s.652-1.178.676-1.834c.012-.483-.065-1.301-.294-2.558-.318-1.828-.298-2.35-.082-3.372.217-1.038 1.213-1.719 1.213-1.719" fill="#009b3a" stroke="#000" stroke-width=".628"/><path d="M528.71 282.289s.614-.147.923-.704c.39-.672.288-1.385.288-1.385-.952-1.844-2.23-.356-2.23-.356-1.145 2.342 1.018 2.445 1.018 2.445" fill="#009b3a" stroke="#000" stroke-width=".69"/><path d="M531.949 278.908c-1.42.074-2.118 2.626-2.118 2.626s-.23.63-.987 1.118c-.805.497-.33 1.212-.33 2.483 0 1.27-.886 3.516-.886 3.516l-.33.762s.031.572.549-.466c.88-1.747 1.845-1.323 2.208-3.203.23-1.398 2.545-1.843 2.545-1.843l-.651-.122c-2.406-1.127.139-3.939.55-4.437.437-.497.853-.497-.55-.434" fill="#009b3a" stroke="#000" stroke-width=".82"/><path d="M531.544 281.935c-.65 1.394 1.2 1.462 1.627 1.218.172-.1.563-.564.563-.564.75-1.078.064-1.808-.327-1.912-.377-.126-1.181-.221-1.863 1.258" fill="#009b3a" stroke="#000" stroke-width=".698"/><path d="M528.03 276.525c.486.904 1.842 3.42 2.16 3.263.2-.097.041-.612.041-.612s-.04-.681-.261-1.504c-.217-.83-.164-1.893-.597-2.574-.42-.68-1.428-1.487-1.824-2.561-.392-1.078-.085-3.117-.052-3.368.04-.235.159-.081-.05-.324-.212-.264-1.926-1.176-1.926-1.176s.1.665.059 1.869c-.016.292-.098.632-.143 1.139-.04.482.25 1.09.952 2.476.816 1.605 1.208 2.59 1.641 3.372M538.31 264.556s-.494.823-.67 1.005c-.183.183-2.976 2.582-3.135 2.683-.135.106-1.593.572-2.92 4.159-1.331 3.575-.755 6.918-.755 6.918l.645-.08.11-.35s.217-1.187.384-2.087c.184-.887 1.179-2.128 1.84-3.044.63-.896 1.138-2.184 1.138-2.184.748-1.508 1.108-2.856 1.849-3.907.03 1.252-4.73 8.951-5.24 11.571l1.41-.215c1.126-1.029 2.6-3.19 3.597-4.584 1.004-1.398 1.43-3.582 1.613-4.551.175-.957.135-5.334.135-5.334" fill="#009b3a" stroke="#000" stroke-width=".628"/><path d="M528.82 265.348c-.719-.665-1.278-.864-1.278-.864s.171 1.305.171 2.1c0 .798.07 2.136.029 2.85-.029.712-.384 1.892.122 3.047.519 1.139 1.103 1.719 1.515 2.436.376.701 1.064 4.347 1.064 4.347s-.251-4.93-.035-6.325c.2-1.37.266-3.506-.04-4.576-.319-1.074-.846-2.334-1.548-3.015M532.106 260.535c.216-.422.723-1.293.935-2.619.077-.563.13-1.475.11-2.107-.016-.422-.184-1.155 0-1.204.163-.04.027.228.12.853.045.223-.108.84-.137 1.63-.037.632-.062 1.16-.344 2.015-.245.754-.023 1.59-.174 1.825-.163.239-.596 1.143-.596 1.143s-.265.73-.22 1.394c.024.68.065 1.415.065 1.415s.314-.584 1.017-.681c0 0 .159-1.14.159-1.496 0-.357.457-2.691.69-3.405.318-1.045.543-2.865.037-4.977-.14-.571-.241-2.359-.241-2.359s-.674.54-1.074 2.578c-.123.62.139 2.282.036 4.053-.04.977-.977 4.936-1.104 5.183" fill="#009b3a" stroke="#000" stroke-width=".628"/><path d="M532.106 260.535c-.033.06-.045.085-.045.085s.028-.025.045-.085" fill="#009b3a" stroke="#000" stroke-width=".628"/><path d="M529.451 250.259c.36 0 .36.389.286.697-.057.316-.049.904-.049 1.025 0 .138.151.977.27 1.415.13.45.355.591.257 1.495-.066.568-.65 1.236-.445 2.201.11.507.473 1.038.653 1.475.151.304.069 1.047.11 1.655.016.591.343.992.343.992s-.404.754-.539-.19c-.147-1.083-.196-1.565-.404-2.055-.339-.803-.65-2.247-.123-3.361.09-.215.16-.615.16-1.09 0-.482-.297-1.306-.354-1.817-.05-.405-.017-1.26-.017-1.569m-1.887 4.533c.085.612.281.96.971 2.29.213.438.695 1.557.768 1.913.086.357.16.787.16.896 0 .118.077.957.077.957v.348s-1.911-1.114-2.748-1.71c-.833-.6-1.78-1.423-2.385-1.921-.686-.564-2.32-2.501-2.34-4.053l-.751-.681s-.572 3.449 2.131 5.682c.78.64 1.63 1.346 3.447 2.168 1.821.84 1.582 1.591 2.342 3.204.747 1.621 1.215 2.554 1.309 3.012.065.49-.207 7.381-.207 7.381l.065.625s1.665-6.383 2.465-7.096c0 0-1.588-.244-1.462-2.74l-.278-1.646s-.318-1.978.278-3.206c0 0 .707-2.25.466-4.195-.151-1.163-.205-1.511-.347-2.626-.217-1.735-.911-4.215-.989-4.515-.237-.871-.318-1.005-.596-1.694-.082-.243-.237-1.046-.494-1.058-.147-.008-.372 1.033-.372 1.033s-.334 1.135-.404 1.443c-.216.916-.723 1.686-.955 3.745-.041.373-.082 1.378-.127 1.512-.024.114-.073.705-.024.932" fill="#009b3a" stroke="#000" stroke-width=".628"/><path d="M529.131 264.374s-.278-.616-.56-.932c-.567-.669-1.33-1.236-3.503-2.298-2.164-1.078-2.736-2.85-3.839-3.579-.506-.349-1.486-.515-1.486-.515s.964 1.326 1.192 1.784c.294.583.364.98 1.556 2.091 1.184 1.115 2.63 1.504 3.561 1.78 1.315.409 3.079 1.67 3.079 1.67M522.31 254.132c.058.174.616 2.08 1.788 3.56 1.792 2.265 5.243 3.883 5.243 3.883-.323-1.41-.885-3.04-1.33-3.762-1.569-2.533-5.713-3.774-5.713-3.774s-.073-.097.012.093M527.257 255.2c.928-2.033-1.844-3.975-2.626-5.391.29-.231.633.373.951.774.454.604 1.732 2.35 1.732 2.35l.396-1.86-3.301-3.003c-.04.437-1.06.796-1.06.796-.494 2.78 3.908 6.333 3.908 6.333" fill="#009b3a" stroke="#000" stroke-width=".628"/><path d="M521.509 250.489c-.796.356-1.078.356-1.078.356l.444 1.178.258.32s1.037 1.5 1.641 1.687c.253.093 1.197.259 2.144.664 1.192.507 3.138 2.209 3.138 2.209s-3.237-3.65-4.478-6.387l-.418-1.577-1.173.078s.322 1.107-.478 1.472" fill="#009b3a" stroke="#000" stroke-width=".628"/><path d="M509.396 248.154c.371.332.98.839 1.76 1.305.714.43 2.772 1.641 4.312 1.933.36.057 2.294.3 2.294.3.077-.847.996-.92.996-.92l-2.739-.3c-2.209-.164-3.89-1.087-5.198-2.565 1.755 1.064 4.278 2.74 6.323 2.65 8.396-.826-2.53-1.033-3.477-1.641-1.005-.62-1.862-1.65-1.862-1.65l-2.462-.11s-1.21-.076.053.998" fill="#009b3a" stroke="#000" stroke-width=".628"/><path d="M519.281 252.935c.543-.04.923-.142 1.046-.737.11-.665-.143-1.147-.944-1.322-.445-.11-1.225-.133-1.543.657-.347.81.914 1.33.914 1.33s.241.105.527.072M520.222 248.122c-.71 0-.951.58-.8 1.71.188 1.14 1.931.641 1.931.641l.323-.166s.237-.183.106-1.09c-.123-.929-.845-1.095-1.56-1.095M523.077 248.922h-.028c-.013.008.028 0 .028 0" fill="#009b3a" stroke="#000" stroke-width=".628"/><path d="M523.05 248.922c.02-.008.069-.033.253-.085.363-.138.73-1.01.73-1.01.184-1.179-.66-1.47-.66-1.47-1.422-.284-1.459.964-1.459.964-.392 1.625.927 1.609 1.135 1.6M516.72 243.34c.079.54.846 1.322.965 1.456.138.121 1.119 1.143 1.45 1.6.33.459 1.43 2.536 1.43 2.536s.191-.032.273-.19c.192-.324-.736-2.84-.83-3.014-.34-.764-.895-1.334-1.454-1.93-.13-.084-.588-.672-1.09-1.304.994 1.272 3.542 4.888 4.293 6.495 0 0-.091-1.713-.185-2.633-.318-2.683-1.017-3.514-1.241-3.903-.396-.725-1.4-1.43-2.12-1.678-.718-.26-1.568-.616-2.478-.908-.94-.287-.217.56.13 1.29.433.863.78 1.637.858 2.184" fill="#009b3a" stroke="#000" stroke-width=".628"/><path d="M513.216 247.754c.927.786 1.343 1.334 3.266 1.617 1.94.304 2.103.175 2.103.175s1.006-.486.495-.912c-2.85-1.253-5.548-2.745-6.918-4.422 0 0 .237-.231 1.225.758.572.58.956.871 1.307 1.143 1.037.725 1.486.932 2.52 1.495.55.3 1.927.624 1.927.624s.196-.417.371-.466c.168-.04-.106-.694-1.303-1.663-1.053-.851-1.747-1.897-1.747-1.897s-1.417-.31-2.952-.566c-1.144-.182-3.296-1.852-3.259-1.398.04.466.323 1.913.903 2.833.583.924 1.139 1.869 2.062 2.68" fill="#009b3a" stroke="#000" stroke-width=".628"/><path d="M497.195 305.742c-.84.247-7.143 2.614-7.143 2.614l-1.76.705c2.43-.547 4.292.677 4.292.677l7.02-3.25s-.02-.106-.195-.232c-.184-.125-1.364-.77-2.214-.514" fill="#009b3a" stroke="#000" stroke-width=".502"/><path d="M488.026 309.274c-.047.04-.094.207.028.26.35.194.256.271 1.847.462 1.604.174 2.65-.13 2.924-.434.322-.352-3.974-1.009-4.8-.288" fill="#009b3a" stroke="#000" stroke-width=".537"/><path d="M477.94 286.6l-.291-1.97s-.368-5.327-.972-6.395c-.116-.237-.064-.79-.448-.799-.735-.055-.735 1.677-.824 3.247-1.195 7.917 5.119 13.962 5.119 13.962z" fill="#009b3a" stroke="#000" stroke-width=".697"/><path d="M509.186 310.057s-.662-.148-.243-.665c.402-.492 1.596-.755 1.835-.755.235-.01.905.048 1.404.187.503.124 1.198.568.995.889-.213.306-.893.688-1.823.688-.797 0-1.206-.02-1.557-.12-.34-.129-.611-.224-.611-.224" fill="#009b3a" stroke="#000" stroke-width=".642"/><path d="M502.341 306.29s-2.168-.997-4.222-2.002c-2.708-1.322-5.962-3.158-8.228-6.526-2.838-4.17-5.305-6.404-5.901-6.853-.613-.45-.702-.616-.927-.3-.204.275-.061.514.11.806.584.949 2.018 2.732 2.532 3.689.886 1.71 2.72 3.578 2.703 4.685 0 .154-.535-.11-.535-.11s-4.291-1.47-6.03-6.67c-1.267-3.77-.728-4.877-1.022-6.761-.502-3.348-.604-3.62-2.262-7.373-.045-.093-1.013-1.662-1.143-1.313-.18.45.163 2.128.163 2.128l.176 1.933s-.14 4.292-.14 4.552c0 .26-1.081 2.938 3.512 7.441 0 0 .07.766-.547.093-.437-.482-3.724-3.007-4.724-7.161-1.03-4.155-1.18-8.313-.4-10.04.706-1.56 2.123-5.374 1.519-8.706-.07-.348-.168-1.37-.388-1.102-.094.13-.507 1.816-.756 2.4-.347.798-.886 1.584-1.053 2.135-.323.936-1.907 2.383-1.597 5.046.351 3.06.551 3.538.919 4.629.126.397.433 1.41.233 1.512-.184.097-.833-1.212-.833-1.212s-2.908-5.715-1.115-10.352c1.813-4.616 6.362-8.994 6.362-8.994s3.695-3.064 4.447-3.777c.294-.276.224-.482.126-.45-.918.231-8.028 1.702-10.527 10.173 0 0-.13.357-.314.268-.229-.102 0-.499 0-.499s1.564-6.006 5.953-8.73c4.79-2.987 4.227-2.55 5.811-3.49.997-.62 1.899-1.45 3.014-3.295.114-.206.567-1.28.506-1.463-.049-.182-.265.069-.367.373 0 0-1.356 2.095-3.386 2.8-2.037.706-3.691-.3-5.737 1.962-2.05 2.274-3.679 5.423-3.679 5.423s-.535.815-.653.79c-.225-.068.11-.867.11-.867s2.736-5.804 4.933-6.983c2.2-1.188 4.16-2.327 5.41-3.291 1.52-1.192 4.137-4.11 5.08-5.115.2-.215 1.605-1.638 1.915-2.1.188-.251.633-.616.56-.68-.2-.15-1.532.49-1.532.49s-7.246 1.997-11.754 8.806c-.208.316-.704.959-.97 1.23-.481.499-.722 1.331-.722 1.331-.294-.243 2.548-3.796 2.548-3.796l.498-2.298s.841-3.453 2.61-5.89c.175-.222 1.22-1.276 1.396-1.495.35-.38-.666.333-.486.174 0 0-6.758 4.852-6.758 10.964 0 1.098-.682 2.1-1.626 3.465-1.102 1.585-1.47 2.558-1.947 4.917a192.91 192.91 0 0 1-.621 2.97s.065.872-.217.807c-.294-.065-.191-.786-.191-.786s.69-4.556 1.18-5.958c.477-1.362.792-2.29.792-2.29s-.282-3.425.478-5.302c.645-1.637 2.278-3.793 2.531-4.332.11-.235.866-1.771 1.078-3.522.029-.235-.155-.04-.461.644-.743 1.674-1.364 2.112-2.585 3.688 0 0-3.132 2.27-4.267 9.022 0 0-.037 2.517-.42 6.461-.278 2.89-.041 5.597.285 7.227.208.997.605 1.005.36 1.126-.152.077.097.013-.258-.74-.433-.904-.765-2.295-.765-4.217 0-3.522.306-6.35.306-6.35s.23-5.691-2.13-8.257c-.114-.133.413 1.151.65 2.432.29 1.589-.237 3.794-.392 4.653-.151.863-1.724 4.625-1.168 8.155 0 0 1.33 5.986 3.046 8.888 0 0 1.067 1.25.123.078-.935-1.171-2.855-5.83-3.022-6.226-.147-.381-1.523-3.28-2.818-4.459-.67-.624-2.511-1.73-2.511-1.73s-1-.762-.241.25c.6.8 1.405 2.234 1.788 2.858a33.536 33.536 0 0 1 2.124 4.02c.616 1.355 2.05 5.339 2.05 5.339l.917 2.527s1.537.853 2.374 1.785c.686.754 2.107 2.485 3.287 5.565.531 1.362 1.59 2.61 1.59 2.61s-.224.432-1.168-1.2c-.93-1.655-1.842-4.758-4.084-7.173-1.703-1.853-6.285-3.721-6.285-3.721s2.944 5.131 3.675 6.047c1.237 1.467 3.026 3.526 3.487 4.07.478.555 3.247 3.975 3.655 4.523.645.855 1.07 1.232 1.409 1.58.73.778 2.894 2.197 3.062 2.42.032.227.075.04-.108-.094-.96-.572-2.106-1.476-3.29-2.246-1.18-.782-5.737-2.727-8.807-6.958-.727-1.252-1.074-1.75-1.319-1.621-.376.199 2.066 8.28 7.089 10.85 0 0 5.541 2.464 6.77 3.206.674.405 2.034 1.005 2.663 1.512.359.296-.327.28-.372.271-2.944-.23-7.17-.62-9.764-2.124 0 0-1.114-.782-.2.317.727.85 2.107 2.946 4.77 4.126 2.666 1.17 6.542 1.852 7.959 1.925 1.392.077 6.357.101 7.309.41.93.315 2.515 1.33 3.422 1.622.824.267 3.311 1.22 3.311 1.22s.748.41 1.148.555c.449.179 2.312.163 2.443-.186.126-.312-.532-.788-.532-.788" fill="#009b3a" stroke="#000" stroke-width=".502"/><path d="M534.539 264.209c.563.206.812 1.876.812 1.876s-.049-.956-.049-1.427c0-.474-.232-2.253-.232-2.253l-.499.357c-.596.474-.927 1.313-.927 1.313s.343-.057.895.134" fill="#009b3a" stroke="#000" stroke-width=".628"/></svg>