<svg xmlns="http://www.w3.org/2000/svg" width="900" height="450" viewBox="0 0 180 90">
  <rect width="180" height="90" fill="#0038a8"/>
  <rect y="45" width="180" height="45" fill="#ce1126"/>
  <path d="M77.94228 45L0 90V0" fill="#fff"/>
  <path d="M4.5 7.794228l2.70906 2.341084 3.1366-1.72668-1.38936 3.2999 2.61144 2.449508L8 13.856406l-1.52264 3.24056-.81562-3.48632-3.55248-.446732 3.06366-1.853032z" fill="#fcd116"/>
  <path d="M65.48738 40.244716l.07294 3.579712L68.94228 45l-3.38196 1.17557-.07294 3.579714-2.16312-2.853172-3.42706 1.036814L61.94228 45l-2.04508-2.938926 3.42706 1.036814z" fill="#fcd116"/>
  <path d="M6.47736 72.903034L8 76.143594l3.56774-.301634-2.61144 2.449508 1.38936 3.2999-3.1366-1.72668L4.5 82.20577l.67292-3.516654-3.06366-1.85303 3.55248-.446732z" fill="#fcd116"/>
  <path d="M28 26l-1.1685 1.1685.5795 8.85044c-.19702.0127-.39206.0318-.58544.057l-1.064-8.07619-.95356.95356 1.4357 7.21881c-1.18098.23368-2.2786.69759-3.24426 1.34425l-4.08856-6.11918h-1.349l4.959 6.46356c-.1556.11962-.3063.24474-.45362.37406l-5.84962-6.67019h-1.653v1.653l6.67018 5.84963c-.12946.1475-.25434.29902-.37406.45481l-6.46356-4.96019v1.349l6.12036 4.08975c-.64648.9655-1.1118 2.06238-1.34542 3.24307L11.95332 41.808l-.95356.95356 8.07618 1.064c-.0252.19341-.0443.38846-.057.58544l-8.85044-.5795L9 45l1.1685 1.1685 8.85044-.5795c.0128.19709.0318.39321.057.58662l-8.07618 1.06282.95356.95356 7.21882-1.43569c.23364 1.18091.69748 2.2784 1.34424 3.24425l-6.11918 4.08856v1.349l6.46356-4.959c.11962.15566.24474.30625.37406.45363l-6.67018 5.84962v1.653h1.653l5.84962-6.67018c.14754.12955.29898.25421.4548.37406l-4.96018 6.46356h1.349l4.08976-6.12037c.96524.64705 2.06224 1.11299 3.24306 1.34662l-1.4357 7.21763.95356.95356 1.064-8.07619c.1933.0252.38842.0443.58544.057l-.5795 8.85044L28 64l1.1685-1.1685-.5795-8.85044c.19704-.0128.39206-.0318.58544-.057l1.064 8.07619.95356-.95356-1.43568-7.21882c1.18096-.23367 2.27858-.69758 3.24424-1.34425l4.08856 6.11919h1.349l-4.959-6.46356c.1556-.11962.30632-.24474.45364-.37406l5.84962 6.67018h1.653v-1.653l-6.67018-5.84962c.12946-.1475.25432-.29902.37406-.45481l6.46356 4.96018v-1.349l-6.12038-4.08975c.64648-.96549 1.11182-2.06237 1.34544-3.24306L44.0467 48.192l.95356-.95356-8.0762-1.064c.0252-.19342.0443-.38846.057-.58544l8.85044.5795L47 45l-1.1685-1.1685-8.85044.5795c-.0126-.19703-.0318-.39206-.057-.58544l8.0762-1.064-.95356-.95356-7.21882 1.43569c-.23368-1.18097-.69758-2.27859-1.34426-3.24425l6.1192-4.08857v-1.349l-6.46356 4.959c-.11962-.15559-.24474-.3063-.37406-.45362l6.67018-5.84963v-1.653h-1.653l-5.84962 6.67019c-.1475-.12946-.29902-.25433-.45482-.37406l4.96018-6.46356h-1.349l-4.08974 6.12037c-.9655-.64648-2.06238-1.11181-3.24306-1.34544l1.43568-7.21881-.95356-.95356-1.064 8.07619c-.1934-.0252-.38846-.0443-.58544-.057l.5795-8.85044z" fill="#fcd116"/>
</svg>
