<?xml version="1.0" encoding="UTF-8" standalone="no"?>
<svg
   xmlns:dc="http://purl.org/dc/elements/1.1/"
   xmlns:cc="http://creativecommons.org/ns#"
   xmlns:rdf="http://www.w3.org/1999/02/22-rdf-syntax-ns#"
   xmlns:svg="http://www.w3.org/2000/svg"
   xmlns="http://www.w3.org/2000/svg"
   xmlns:sodipodi="http://sodipodi.sourceforge.net/DTD/sodipodi-0.dtd"
   xmlns:inkscape="http://www.inkscape.org/namespaces/inkscape"
   width="1200"
   height="600"
   version="1.1"
   id="svg17"
   sodipodi:docname="2222.svg"
   inkscape:version="0.92.2 (5c3e80d, 2017-08-06)">
  <metadata
     id="metadata23">
    <rdf:RDF>
      <cc:Work
         rdf:about="">
        <dc:format>image/svg+xml</dc:format>
        <dc:type
           rdf:resource="http://purl.org/dc/dcmitype/StillImage" />
        <dc:title></dc:title>
      </cc:Work>
    </rdf:RDF>
  </metadata>
  <defs
     id="defs21" />
  <sodipodi:namedview
     pagecolor="#ffffff"
     bordercolor="#666666"
     borderopacity="1"
     objecttolerance="10"
     gridtolerance="10"
     guidetolerance="10"
     inkscape:pageopacity="0"
     inkscape:pageshadow="2"
     inkscape:window-width="1920"
     inkscape:window-height="1057"
     id="namedview19"
     showgrid="false"
     inkscape:zoom="0.66939442"
     inkscape:cx="522.85712"
     inkscape:cy="142.7171"
     inkscape:window-x="-8"
     inkscape:window-y="-8"
     inkscape:window-maximized="1"
     inkscape:current-layer="svg17" />
  <clipPath
     id="c">
    <path
       d="M0,0V150H700V300H600zM0,300V350H300V0H600z"
       id="path2" />
  </clipPath>
  <rect
     width="1200"
     height="600"
     fill="#00247d"
     id="rect5" />
  <path
     d="M0,0 600,300M600,0 0,300"
     stroke="#fff"
     stroke-width="60"
     id="path7" />
  <path
     d="M0,0 600,300M600,0 0,300"
     stroke="#cf142b"
     stroke-width="40"
     clip-path="url(#c)"
     id="path9" />
  <path
     d="M0,150H700M300,0V350"
     stroke="#fff"
     stroke-width="100"
     id="path11" />
  <path
     d="M0,150H700M300,0V350"
     stroke="#cf142b"
     stroke-width="60"
     id="path13" />
  <path
     d="M0,300H600V0H1200V600H0z"
     id="path15"
     style="stroke:none;fill:#0096c8;fill-opacity:1"
     fill="#00247d" />
  <path
     inkscape:connector-curvature="0"
     d="m 645.3396,490.91279 29.4368,90.597 -77.0665,-55.992 h 95.2594 l -77.0665,55.993 z"
     id="use21"
     style="fill:#ffce00" />
  <path
     inkscape:connector-curvature="0"
     d="m 817.46233,463.99977 -29.43671,90.59703 -29.43684,-90.59703 77.06648,55.99207 -95.25997,7.4e-4 z"
     id="use23"
     style="fill:#ffce00" />
  <path
     inkscape:connector-curvature="0"
     d="m 817.46233,342.01619 -29.43671,90.59703 -29.43684,-90.59703 77.06648,55.99207 -95.25997,7.4e-4 z"
     id="use25"
     style="fill:#ffce00" />
  <path
     inkscape:connector-curvature="0"
     d="m 943.46715,433.16817 -29.43671,90.59703 -29.43683,-90.59703 77.06647,55.99207 -95.25997,7.3e-4 z"
     id="use27"
     style="fill:#ffce00" />
  <path
     inkscape:connector-curvature="0"
     d="m 943.46715,167.75458 -29.43671,90.59703 -29.43683,-90.59703 77.06647,55.99207 -95.25997,7.3e-4 z"
     id="use29"
     style="fill:#ffce00" />
  <path
     inkscape:connector-curvature="0"
     d="m 996.44159,339.96479 29.43681,90.597 -77.06651,-55.992 h 95.25941 l -77.06651,55.993 z"
     id="use31"
     style="fill:#ffce00" />
  <path
     inkscape:connector-curvature="0"
     d="m 1049.3647,131.56139 -29.4367,90.59703 -29.43681,-90.59703 77.06651,55.99207 -95.26001,7.3e-4 z"
     id="use33"
     style="fill:#ffce00" />
  <path
     inkscape:connector-curvature="0"
     d="m 1102.8361,271.47361 29.4368,90.597 -77.0665,-55.992 h 95.2594 l -77.0665,55.993 z"
     id="use35"
     style="fill:#ffce00" />
  <path
     inkscape:connector-curvature="0"
     d="m 1102.8361,37.4052 29.4368,90.597 -77.0665,-55.992 h 95.2594 l -77.0665,55.993 z"
     id="use37"
     style="fill:#ffce00" />
</svg>
