<svg id="svg" version="1.1" xmlns="http://www.w3.org/2000/svg" xmlns:xlink="http://www.w3.org/1999/xlink" width="400" height="400" viewBox="0, 0, 400,400"><g id="svgg"><path id="path0" d="M100.400 0.356 C 100.400 1.120,101.944 2.599,102.327 2.200 C 103.503 0.973,103.282 0.000,101.827 0.000 C 101.042 0.000,100.400 0.160,100.400 0.356 M297.266 1.219 C 297.662 2.354,297.750 2.398,298.546 1.871 C 300.011 0.899,299.869 -0.000,298.250 -0.000 C 296.854 -0.000,296.845 0.011,297.266 1.219 M96.958 101.265 C 92.187 105.921,92.178 105.516,97.175 110.598 C 101.300 114.793,101.284 114.793,105.485 110.700 C 110.562 105.753,110.562 105.755,105.430 100.881 C 101.433 97.084,101.231 97.093,96.958 101.265 M0.000 106.200 C 0.000 107.677,0.071 107.731,1.500 107.348 C 2.678 107.032,2.643 106.251,1.414 105.446 C 0.069 104.565,0.000 104.601,0.000 106.200 M398.400 105.614 C 397.422 106.393,397.417 106.423,398.176 107.005 C 399.450 107.981,400.000 107.738,400.000 106.200 C 400.000 104.592,399.783 104.513,398.400 105.614 M118.522 232.428 C 115.586 232.823,114.187 233.839,110.009 238.611 C 107.988 240.920,103.761 245.138,100.617 247.985 C 97.473 250.831,91.863 256.331,88.150 260.207 C 84.438 264.082,79.060 269.264,76.200 271.722 C 73.340 274.180,68.210 278.632,64.800 281.615 C 61.390 284.598,56.890 288.439,54.800 290.151 C 47.573 296.069,47.291 296.312,41.800 301.356 C 35.790 306.877,31.867 306.942,24.610 301.641 C 20.475 298.619,18.195 298.649,14.500 301.772 C 12.762 303.242,12.858 304.103,15.035 306.523 C 17.639 309.420,18.512 311.392,20.337 318.502 C 26.168 341.217,42.286 360.260,65.000 371.271 C 69.076 373.247,76.308 375.601,85.167 377.836 C 93.337 379.897,94.666 380.478,97.901 383.406 C 101.050 386.255,101.551 386.233,105.047 383.083 C 108.408 380.056,110.183 379.252,118.077 377.180 C 142.075 370.880,157.855 359.485,170.604 339.253 C 176.000 330.688,176.806 328.920,179.828 319.000 C 181.851 312.358,182.851 310.424,186.036 306.988 C 189.316 303.451,189.300 303.568,186.942 300.365 C 184.242 296.696,183.709 295.188,182.620 288.142 C 180.540 274.675,176.997 264.962,170.896 256.000 C 163.748 245.502,161.639 243.172,155.888 239.423 C 146.992 233.624,145.407 233.181,132.088 232.770 C 126.087 232.584,121.047 232.369,120.888 232.290 C 120.730 232.212,119.665 232.274,118.522 232.428 M294.523 298.923 C 289.902 303.544,289.901 303.371,294.546 307.926 C 299.111 312.403,298.888 312.398,303.252 308.128 C 307.948 303.532,307.948 303.440,303.254 298.746 C 298.892 294.384,299.066 294.380,294.523 298.923 M0.000 302.971 C 0.000 304.524,0.723 304.539,1.990 303.012 C 2.614 302.260,2.533 302.149,1.099 301.789 C 0.051 301.526,0.000 301.581,0.000 302.971 M398.300 301.876 C 397.190 302.166,397.701 303.139,399.500 304.163 C 399.860 304.367,400.000 304.048,400.000 303.024 C 400.000 301.601,399.819 301.479,398.300 301.876 M101.023 398.489 C 100.121 399.776,100.236 400.000,101.800 400.000 C 103.370 400.000,103.345 400.033,102.810 398.626 C 102.331 397.366,101.836 397.328,101.023 398.489 M297.260 398.800 L 296.842 400.000 298.444 400.000 C 300.115 400.000,300.165 399.800,298.877 398.300 C 298.040 397.326,297.742 397.418,297.260 398.800 " stroke="none" fill="#3b382f" fill-rule="evenodd"></path><path id="path1" d="M-0.000 49.700 L -0.000 99.400 42.900 99.309 C 88.854 99.211,89.298 99.198,91.243 97.874 C 94.890 95.391,94.792 96.826,94.905 44.300 L 95.000 -0.000 47.500 -0.000 L 0.000 0.000 -0.000 49.700 M107.414 1.300 C 107.582 2.015,107.828 23.030,107.960 48.000 L 108.200 93.400 109.124 95.276 C 109.838 96.726,110.474 97.362,111.924 98.076 L 113.800 99.000 161.000 99.209 C 213.725 99.443,210.704 99.270,214.004 102.251 L 215.561 103.658 215.176 102.329 C 214.965 101.598,214.394 99.650,213.907 98.000 C 210.518 86.506,215.781 64.924,225.687 49.695 C 240.893 26.316,272.419 9.854,292.800 14.650 C 296.616 15.548,301.083 15.537,306.362 14.617 C 314.559 13.187,325.115 15.487,336.600 21.203 C 340.077 22.934,343.874 25.479,351.248 31.019 C 360.405 37.898,375.285 59.925,377.185 69.413 C 378.103 73.994,379.372 79.462,380.200 82.400 C 380.293 82.730,380.660 84.170,381.015 85.600 C 381.370 87.030,381.764 88.560,381.890 89.000 C 382.710 91.873,382.205 98.562,381.062 99.969 C 380.678 100.443,380.769 100.493,381.600 100.266 C 384.524 99.467,389.122 99.128,394.300 99.328 L 400.000 99.548 400.000 49.774 L 400.000 0.000 352.600 0.000 L 305.200 0.000 305.200 3.927 C 305.200 8.895,304.468 11.506,302.622 13.127 C 297.032 18.035,291.030 10.835,292.931 1.500 L 293.236 0.000 200.173 0.000 L 107.109 0.000 107.414 1.300 M215.840 109.511 C 214.835 112.554,215.853 112.493,161.600 112.760 L 113.000 113.000 111.449 113.964 C 110.441 114.590,109.601 115.571,109.049 116.764 L 108.200 118.600 108.200 164.400 C 108.200 220.564,106.901 214.572,119.219 215.235 C 154.498 217.136,183.803 247.264,187.781 285.725 C 188.473 292.414,189.254 294.383,191.742 295.713 L 193.400 296.600 240.000 296.600 L 286.600 296.600 288.294 295.695 C 290.105 294.727,290.946 293.704,291.700 291.549 C 292.049 290.551,292.227 276.456,292.386 237.400 C 292.582 188.979,292.656 184.492,293.273 183.294 L 293.945 181.987 292.551 182.141 C 291.097 182.301,286.540 181.581,285.692 181.057 C 285.423 180.891,284.887 180.682,284.502 180.593 C 283.075 180.264,266.486 173.530,263.200 171.947 C 260.197 170.499,254.336 166.930,247.612 162.456 C 245.321 160.932,237.845 153.749,235.688 151.000 C 234.997 150.120,233.641 148.409,232.673 147.197 C 228.827 142.381,224.500 134.426,222.012 127.600 C 221.090 125.070,219.972 122.100,219.526 121.000 C 217.836 116.824,216.799 113.472,216.760 112.062 C 216.738 111.258,216.590 110.150,216.431 109.600 L 216.141 108.600 215.840 109.511 M378.201 111.778 C 376.605 122.433,374.010 128.504,365.283 142.000 C 356.106 156.192,342.342 166.754,322.029 175.192 C 319.483 176.250,315.474 177.952,313.121 178.974 C 310.767 179.996,307.782 181.019,306.487 181.247 L 304.133 181.662 304.754 183.731 C 305.298 185.540,305.402 192.416,305.588 238.400 L 305.800 291.000 306.700 292.826 C 307.318 294.081,308.132 294.957,309.300 295.626 L 311.000 296.600 354.400 296.834 C 378.270 296.962,398.295 297.208,398.900 297.380 L 400.000 297.693 400.000 204.629 L 400.000 111.564 398.500 111.882 C 394.963 112.632,384.382 112.170,381.322 111.132 L 378.444 110.156 378.201 111.778 M0.000 204.600 C 0.000 255.750,0.135 297.599,0.300 297.598 C 0.465 297.596,2.623 297.254,5.095 296.837 C 12.505 295.588,13.619 294.445,15.818 285.836 C 17.660 278.623,18.685 276.400,20.172 276.400 C 20.420 276.400,21.890 277.867,22.422 278.645 C 22.942 279.405,23.004 279.024,23.040 274.845 C 23.089 269.120,23.942 264.788,26.004 259.800 C 26.276 259.140,26.647 258.240,26.826 257.800 C 31.410 246.575,34.619 241.642,42.517 233.674 C 49.660 226.469,58.069 220.947,66.445 217.962 C 68.950 217.070,72.710 215.730,74.800 214.985 C 82.280 212.320,88.006 212.181,93.755 214.525 L 97.009 215.852 96.005 213.026 L 95.000 210.200 94.800 164.400 L 94.600 118.600 93.600 116.607 C 91.632 112.684,95.883 113.033,46.800 112.767 C 16.405 112.602,3.331 112.399,2.200 112.076 C 1.320 111.825,0.465 111.615,0.300 111.610 C 0.135 111.604,0.000 153.450,0.000 204.600 M0.000 354.776 L 0.000 400.000 47.605 400.000 L 95.209 400.000 95.020 398.500 C 94.915 397.675,94.723 395.575,94.592 393.833 C 94.055 386.673,92.574 385.373,83.132 383.775 C 50.774 378.299,20.401 350.383,14.616 320.800 C 12.920 312.132,11.228 310.544,2.900 309.808 L 0.000 309.552 0.000 354.776 M354.800 310.004 C 309.444 310.238,310.114 310.208,308.098 312.090 C 305.503 314.513,305.723 309.466,305.501 371.700 L 305.400 400.000 352.700 400.000 L 400.000 400.000 400.000 354.800 L 400.000 309.600 398.900 309.691 C 398.295 309.740,378.450 309.881,354.800 310.004 M194.600 310.388 C 189.550 310.975,187.799 312.854,186.016 319.600 C 183.204 330.235,179.288 338.185,170.940 350.200 C 160.179 365.689,138.606 379.571,119.340 383.404 C 109.961 385.270,109.216 385.976,107.961 394.178 C 107.555 396.830,107.218 399.225,107.212 399.500 C 107.202 399.899,126.070 400.000,200.247 400.000 L 293.293 400.000 292.965 399.100 C 292.785 398.605,292.539 379.750,292.419 357.200 C 292.202 316.481,292.194 316.187,291.351 314.364 C 290.150 311.769,288.465 310.842,284.116 310.384 C 280.088 309.960,198.251 309.964,194.600 310.388 " stroke="none" fill="#f9da8b" fill-rule="evenodd"></path><path id="path2" d="M283.000 14.069 C 241.721 16.867,204.315 64.348,214.673 100.800 C 215.706 104.438,216.426 107.938,216.604 110.190 C 216.870 113.565,217.580 116.191,219.526 121.000 C 219.972 122.100,221.090 125.070,222.012 127.600 C 224.500 134.426,228.827 142.381,232.673 147.197 C 233.641 148.409,234.997 150.120,235.688 151.000 C 237.845 153.749,245.321 160.932,247.612 162.456 C 254.336 166.930,260.197 170.499,263.200 171.947 C 266.486 173.530,283.075 180.264,284.502 180.593 C 284.887 180.682,285.423 180.891,285.692 181.057 C 287.856 182.394,292.904 182.416,295.576 181.099 C 297.786 180.010,301.368 179.968,302.962 181.012 C 304.434 181.976,307.731 181.315,313.121 178.974 C 315.474 177.952,319.483 176.250,322.029 175.192 C 338.554 168.328,353.013 158.364,360.575 148.631 C 365.454 142.350,372.912 130.032,374.801 125.135 C 377.372 118.468,378.595 111.539,377.828 107.986 C 377.389 105.951,378.163 103.574,379.980 101.375 C 382.183 98.709,383.047 93.102,381.887 89.000 C 381.763 88.560,381.370 87.030,381.015 85.600 C 380.660 84.170,380.293 82.730,380.200 82.400 C 379.372 79.462,378.103 73.994,377.185 69.413 C 375.285 59.925,360.405 37.898,351.248 31.019 C 343.874 25.479,340.077 22.934,336.600 21.203 C 325.109 15.484,314.551 13.185,306.362 14.621 C 301.617 15.452,296.194 15.550,293.700 14.848 C 290.864 14.049,287.210 13.784,283.000 14.069 M80.805 213.231 C 79.597 213.445,76.897 214.233,74.805 214.980 C 72.712 215.728,68.950 217.070,66.445 217.962 C 58.069 220.947,49.660 226.469,42.517 233.674 C 34.619 241.642,31.410 246.575,26.826 257.800 C 26.647 258.240,26.276 259.140,26.004 259.800 C 21.539 270.603,21.891 280.917,26.876 285.421 C 30.201 288.425,31.574 287.689,42.200 277.202 C 46.600 272.859,52.630 267.092,55.600 264.387 C 58.570 261.682,62.710 257.833,64.800 255.834 C 76.088 245.037,83.285 238.878,89.552 234.652 C 97.783 229.102,101.138 222.183,97.943 217.347 C 95.777 214.069,87.403 212.058,80.805 213.231 " stroke="none" fill="#e4e4e3" fill-rule="evenodd"></path><path id="path3" d="M292.819 7.800 C 292.808 15.374,302.459 17.086,304.596 9.890 C 305.448 7.018,305.389 6.936,303.623 8.532 C 300.374 11.467,295.584 11.051,293.473 7.651 L 292.821 6.600 292.819 7.800 M386.000 99.455 C 380.700 100.229,378.904 101.444,377.978 104.880 C 376.673 109.730,379.129 111.592,387.626 112.197 L 391.400 112.466 390.158 111.674 C 385.453 108.675,387.014 100.892,392.600 99.493 C 393.509 99.266,387.533 99.231,386.000 99.455 M207.359 100.870 C 210.659 103.591,211.027 107.794,208.211 110.611 L 206.421 112.400 208.191 112.400 C 214.409 112.400,217.187 110.006,216.054 105.624 C 215.202 102.329,211.117 99.600,207.036 99.600 L 205.818 99.600 207.359 100.870 M296.556 180.634 C 293.307 181.810,292.387 184.116,292.420 191.000 L 292.435 194.200 293.219 192.716 C 295.608 188.192,302.572 188.267,304.949 192.842 L 305.655 194.200 305.427 190.115 C 304.921 181.091,302.485 178.488,296.556 180.634 M94.825 206.400 C 94.804 209.042,95.994 213.403,97.639 216.717 C 100.843 223.170,98.337 228.729,89.552 234.652 C 83.285 238.878,76.088 245.037,64.800 255.834 C 62.710 257.833,58.570 261.682,55.600 264.387 C 52.630 267.092,46.600 272.859,42.200 277.202 C 30.108 289.137,28.214 289.547,23.822 281.189 C 22.144 277.995,20.587 276.243,19.723 276.574 C 19.399 276.698,19.064 276.800,18.977 276.800 C 18.523 276.800,17.049 280.947,15.966 285.272 C 14.524 291.028,14.084 292.169,12.656 293.863 L 11.591 295.127 13.600 294.363 C 17.613 292.838,18.680 293.221,23.400 297.879 C 30.752 305.135,34.111 305.107,42.066 297.726 C 44.340 295.616,48.900 291.631,52.200 288.871 C 57.394 284.526,60.258 282.038,67.200 275.837 C 67.970 275.149,70.400 273.032,72.600 271.134 C 74.800 269.235,80.470 263.739,85.200 258.922 C 89.930 254.104,95.600 248.619,97.800 246.734 C 104.018 241.405,105.674 239.713,109.073 235.223 C 113.708 229.101,113.789 229.067,123.400 229.378 C 128.426 229.540,132.151 229.462,134.400 229.147 C 139.942 228.370,145.198 228.423,147.877 229.285 C 149.155 229.695,150.515 230.104,150.900 230.193 C 151.837 230.409,155.765 232.521,155.933 232.900 C 156.007 233.065,156.244 233.200,156.461 233.200 C 156.678 233.200,157.641 233.740,158.600 234.400 C 159.559 235.060,160.466 235.600,160.614 235.600 C 161.133 235.600,167.600 241.349,167.600 241.810 C 167.600 241.948,168.158 242.620,168.840 243.302 C 171.590 246.052,182.955 264.274,182.719 265.554 C 182.693 265.689,182.787 266.070,182.926 266.400 C 183.219 267.096,185.189 273.375,185.418 274.345 C 185.955 276.617,186.734 278.886,186.764 278.267 C 187.006 273.314,180.690 258.205,174.526 248.989 C 160.069 227.371,142.231 216.475,119.276 215.238 C 109.941 214.735,109.192 214.281,108.225 208.534 C 107.935 206.810,107.676 205.701,107.649 206.069 C 107.272 211.238,98.283 211.524,95.603 206.452 L 94.835 205.000 94.825 206.400 " stroke="none" fill="#848481" fill-rule="evenodd"></path><path id="path4" d="M95.112 0.100 C 95.064 0.155,94.929 21.170,94.812 46.800 C 94.586 96.412,94.664 94.600,92.673 96.738 C 90.436 99.141,93.556 98.980,44.800 99.218 C 20.270 99.338,0.155 99.473,0.100 99.518 C -0.712 100.185,0.144 104.712,1.200 105.336 C 2.731 106.241,2.731 107.064,1.200 107.400 C 0.068 107.649,-0.000 107.774,-0.000 109.599 L 0.000 111.535 1.900 112.030 C 3.324 112.401,14.580 112.585,46.800 112.763 C 95.882 113.034,91.632 112.684,93.600 116.607 L 94.600 118.600 94.800 162.000 C 95.026 210.962,94.722 206.813,98.255 209.153 C 101.423 211.252,104.619 210.634,106.963 207.471 C 107.797 206.345,107.801 206.204,108.000 162.471 C 108.227 112.712,107.985 116.118,111.449 113.964 L 113.000 113.000 159.400 112.800 L 205.800 112.600 207.084 111.684 C 211.065 108.844,211.056 103.820,207.063 100.628 L 205.526 99.400 159.663 99.200 L 113.800 99.000 111.924 98.076 C 110.474 97.362,109.838 96.726,109.124 95.276 L 108.200 93.400 107.960 48.000 C 107.828 23.030,107.582 2.015,107.414 1.300 C 106.962 -0.626,103.523 -0.702,102.860 1.200 C 102.330 2.720,101.745 2.721,100.881 1.203 C 100.281 0.147,95.821 -0.706,95.112 0.100 M293.047 1.100 C 292.179 5.518,292.811 7.925,295.209 9.342 C 298.340 11.191,300.958 10.940,303.623 8.532 L 305.200 7.107 305.200 3.553 L 305.200 0.000 302.400 0.000 C 300.227 0.000,299.600 0.129,299.600 0.577 C 299.600 2.017,297.833 2.503,297.299 1.211 C 296.570 -0.550,293.388 -0.633,293.047 1.100 M105.430 100.881 C 110.562 105.755,110.562 105.753,105.485 110.700 C 101.284 114.793,101.300 114.793,97.175 110.598 C 92.178 105.516,92.187 105.921,96.958 101.265 C 101.231 97.093,101.433 97.084,105.430 100.881 M392.600 99.493 C 389.963 100.153,387.200 103.671,387.200 106.367 C 387.200 111.211,391.380 113.382,397.980 111.967 L 400.000 111.534 400.000 109.655 C 400.000 107.934,399.899 107.737,398.800 107.322 C 398.140 107.073,397.600 106.684,397.600 106.457 C 397.600 106.231,398.140 105.726,398.800 105.336 C 399.926 104.671,400.000 104.476,400.000 102.171 L 400.000 99.714 397.541 99.457 C 394.868 99.178,393.830 99.185,392.600 99.493 M295.695 190.229 C 292.126 192.369,292.402 188.191,292.388 240.284 C 292.373 294.889,292.489 293.291,288.380 295.600 L 286.600 296.600 240.000 296.600 L 193.400 296.600 191.742 295.713 C 189.531 294.531,188.489 292.322,187.982 287.748 C 187.536 283.720,186.612 278.474,185.981 276.400 C 185.748 275.630,185.490 274.705,185.410 274.345 C 185.208 273.443,183.237 267.138,182.926 266.400 C 182.787 266.070,182.693 265.689,182.719 265.554 C 182.955 264.274,171.590 246.052,168.840 243.302 C 168.158 242.620,167.600 241.948,167.600 241.810 C 167.600 241.349,161.133 235.600,160.614 235.600 C 160.466 235.600,159.559 235.060,158.600 234.400 C 157.641 233.740,156.678 233.200,156.461 233.200 C 156.244 233.200,156.007 233.065,155.933 232.900 C 155.765 232.521,151.837 230.409,150.900 230.193 C 150.515 230.104,149.155 229.695,147.877 229.285 C 145.198 228.423,139.942 228.370,134.400 229.147 C 132.151 229.462,128.426 229.540,123.400 229.378 C 113.789 229.067,113.708 229.101,109.073 235.223 C 105.674 239.713,104.018 241.405,97.800 246.734 C 95.600 248.619,89.930 254.104,85.200 258.922 C 80.470 263.739,74.800 269.235,72.600 271.134 C 70.400 273.032,67.970 275.149,67.200 275.837 C 60.258 282.038,57.394 284.526,52.200 288.871 C 48.900 291.631,44.340 295.616,42.066 297.726 C 34.111 305.107,30.752 305.135,23.400 297.879 C 18.385 292.930,17.739 292.762,12.075 294.950 C 10.153 295.692,7.775 296.425,6.790 296.578 C 5.806 296.732,3.875 297.043,2.500 297.270 L 0.000 297.682 0.000 299.609 C 0.000 301.425,0.069 301.552,1.200 301.800 C 2.712 302.132,2.712 302.546,1.200 303.663 C 0.092 304.482,0.000 304.740,-0.000 307.021 L -0.000 309.491 1.856 309.746 C 2.877 309.886,4.194 310.000,4.783 310.000 C 10.491 310.000,13.054 312.815,14.616 320.800 C 20.401 350.383,50.774 378.299,83.132 383.775 C 92.636 385.383,94.093 386.689,94.608 394.056 C 94.736 395.895,94.930 397.985,95.039 398.700 L 95.236 400.000 97.718 399.997 C 100.055 399.995,100.240 399.925,100.881 398.797 C 101.745 397.279,102.330 397.280,102.860 398.800 C 103.312 400.097,107.183 400.720,107.212 399.500 C 107.218 399.225,107.555 396.830,107.961 394.178 C 109.216 385.976,109.961 385.270,119.340 383.404 C 138.607 379.571,160.092 365.747,170.949 350.200 C 178.878 338.844,182.870 330.818,185.632 320.673 C 187.411 314.143,188.511 312.405,191.805 310.919 C 193.303 310.244,196.025 310.193,236.600 310.082 C 290.140 309.936,289.271 309.868,291.351 314.364 C 292.194 316.187,292.202 316.481,292.419 357.200 C 292.539 379.750,292.785 398.605,292.965 399.100 C 293.522 400.628,296.700 400.406,297.260 398.800 C 297.490 398.140,297.835 397.600,298.027 397.600 C 298.219 397.600,298.775 398.140,299.263 398.800 C 300.042 399.854,304.673 400.701,305.275 399.900 C 305.317 399.845,305.452 380.810,305.575 357.600 C 305.821 311.420,305.658 314.369,308.098 312.090 C 310.104 310.217,309.434 310.246,355.800 309.999 C 380.000 309.870,399.845 309.727,399.900 309.682 C 400.694 309.030,399.856 304.444,398.800 303.663 C 398.140 303.175,397.600 302.616,397.600 302.420 C 397.600 302.224,398.140 301.945,398.800 301.800 C 400.568 301.412,400.648 297.878,398.900 297.380 C 398.295 297.208,378.270 296.962,354.400 296.834 L 311.000 296.600 309.300 295.626 C 308.132 294.957,307.318 294.081,306.700 292.826 L 305.800 291.000 305.600 242.200 C 305.374 187.120,305.708 192.235,302.208 190.184 C 300.008 188.894,297.898 188.909,295.695 190.229 M132.088 232.770 C 145.407 233.181,146.992 233.624,155.888 239.423 C 168.931 247.925,179.337 266.890,182.620 288.142 C 183.709 295.188,184.242 296.696,186.942 300.365 C 189.300 303.568,189.316 303.451,186.036 306.988 C 182.851 310.424,181.851 312.358,179.828 319.000 C 176.806 328.920,176.000 330.688,170.604 339.253 C 157.855 359.485,142.075 370.880,118.077 377.180 C 110.183 379.252,108.408 380.056,105.047 383.083 C 101.551 386.233,101.050 386.255,97.901 383.406 C 94.666 380.478,93.337 379.897,85.167 377.836 C 50.468 369.082,28.054 348.568,20.337 318.502 C 18.512 311.392,17.639 309.420,15.035 306.523 C 12.858 304.103,12.762 303.242,14.500 301.772 C 18.195 298.649,20.475 298.619,24.610 301.641 C 31.867 306.942,35.790 306.877,41.800 301.356 C 47.291 296.312,47.573 296.069,54.800 290.151 C 56.890 288.439,61.390 284.598,64.800 281.615 C 68.210 278.632,73.340 274.180,76.200 271.722 C 79.060 269.264,84.438 264.082,88.150 260.207 C 91.863 256.331,97.473 250.831,100.617 247.985 C 103.761 245.138,107.988 240.920,110.009 238.611 C 114.497 233.485,118.544 231.134,120.888 232.290 C 121.047 232.369,126.087 232.584,132.088 232.770 M303.254 298.746 C 307.948 303.440,307.948 303.532,303.252 308.128 C 298.888 312.398,299.111 312.403,294.546 307.926 C 289.901 303.371,289.902 303.544,294.523 298.923 C 299.066 294.380,298.892 294.384,303.254 298.746 " stroke="none" fill="#8c7c54" fill-rule="evenodd"></path></g></svg>